<svg width="41" height="41" viewBox="0 0 41 41" fill="none" xmlns="http://www.w3.org/2000/svg">
<path d="M10.25 37.5832C8.82639 37.5832 7.61632 37.0849 6.61979 36.0884C5.62326 35.0919 5.125 33.8818 5.125 32.4582V8.5415C5.125 7.11789 5.62326 5.90782 6.61979 4.9113C7.61632 3.91477 8.82639 3.4165 10.25 3.4165H29.0417V30.7498H10.25C9.76597 30.7498 9.36024 30.9136 9.03281 31.241C8.70538 31.5684 8.54167 31.9741 8.54167 32.4582C8.54167 32.9422 8.70538 33.3479 9.03281 33.6754C9.36024 34.0028 9.76597 34.1665 10.25 34.1665H32.4583V6.83317H35.875V37.5832H10.25ZM15.375 27.3332H25.625V6.83317H15.375V27.3332ZM11.9583 27.3332V6.83317H10.25C9.76597 6.83317 9.36024 6.99689 9.03281 7.32432C8.70538 7.65175 8.54167 8.05748 8.54167 8.5415V27.6321C8.82639 27.5467 9.10399 27.4755 9.37448 27.4186C9.64497 27.3616 9.93681 27.3332 10.25 27.3332H11.9583Z" fill="#00199D"/>
</svg>
