<svg width="41" height="41" viewBox="0 0 41 41" fill="none" xmlns="http://www.w3.org/2000/svg">
<path d="M20.5 37.5832C19.7598 37.5832 19.0907 37.4052 18.4927 37.0493C17.8948 36.6934 17.425 36.2165 17.0834 35.6186C16.1438 35.6186 15.3395 35.284 14.6704 34.6149C14.0013 33.9458 13.6667 33.1415 13.6667 32.2019V26.1373C11.9868 25.0269 10.6415 23.5606 9.63077 21.7384C8.62001 19.9162 8.11462 17.9373 8.11462 15.8019C8.11462 12.3568 9.31758 9.43126 11.7235 7.02536C14.1294 4.61946 17.0549 3.4165 20.5 3.4165C23.9452 3.4165 26.8707 4.61946 29.2766 7.02536C31.6825 9.43126 32.8855 12.3568 32.8855 15.8019C32.8855 17.9943 32.3801 19.9873 31.3693 21.7811C30.3585 23.5748 29.0132 25.0269 27.3334 26.1373V32.2019C27.3334 33.1415 26.9988 33.9458 26.3297 34.6149C25.6606 35.284 24.8563 35.6186 23.9167 35.6186C23.575 36.2165 23.1052 36.6934 22.5073 37.0493C21.9094 37.4052 21.2403 37.5832 20.5 37.5832ZM17.0834 32.2019H23.9167V30.6644H17.0834V32.2019ZM17.0834 28.9561H23.9167V27.3332H17.0834V28.9561ZM16.7417 23.9165H19.2188V19.304L15.4605 15.5457L17.2542 13.7519L20.5 16.9978L23.7459 13.7519L25.5396 15.5457L21.7813 19.304V23.9165H24.2584C25.7959 23.1762 27.0487 22.0872 28.0167 20.6493C28.9848 19.2115 29.4688 17.5957 29.4688 15.8019C29.4688 13.2964 28.6004 11.1752 26.8636 9.43838C25.1268 7.70157 23.0056 6.83317 20.5 6.83317C17.9945 6.83317 15.8733 7.70157 14.1365 9.43838C12.3997 11.1752 11.5313 13.2964 11.5313 15.8019C11.5313 17.5957 12.0153 19.2115 12.9834 20.6493C13.9514 22.0872 15.2042 23.1762 16.7417 23.9165Z" fill="#00199D"/>
</svg>
