<svg width="41" height="41" viewBox="0 0 41 41" fill="none" xmlns="http://www.w3.org/2000/svg">
<path d="M8.54167 37.5834C7.60208 37.5834 6.79774 37.2489 6.12865 36.5798C5.45955 35.9107 5.125 35.1063 5.125 34.1667V10.2501C5.125 9.3105 5.45955 8.50616 6.12865 7.83706C6.79774 7.16796 7.60208 6.83341 8.54167 6.83341H10.25V3.41675H13.6667V6.83341H27.3333V3.41675H30.75V6.83341H32.4583C33.3979 6.83341 34.2023 7.16796 34.8714 7.83706C35.5405 8.50616 35.875 9.3105 35.875 10.2501V21.1407L32.4583 24.5574V17.0834H8.54167V34.1667H19.1333L22.55 37.5834H8.54167ZM8.54167 13.6667H32.4583V10.2501H8.54167V13.6667ZM28.2729 38.4376L22.2083 32.373L24.6 29.9813L28.2302 33.6115L35.4906 26.3511L37.8823 28.7855L28.2729 38.4376Z" fill="#00199D"/>
</svg>
