<svg width="41" height="41" viewBox="0 0 41 41" fill="none" xmlns="http://www.w3.org/2000/svg">
<path d="M5.12504 37.5833C4.18546 37.5833 3.38112 37.2487 2.71202 36.5796C2.04292 35.9105 1.70837 35.1062 1.70837 34.1666V15.3749H5.12504V34.1666H34.1667V37.5833H5.12504ZM11.9584 30.7499C11.0188 30.7499 10.2145 30.4154 9.54535 29.7463C8.87626 29.0772 8.54171 28.2728 8.54171 27.3333V8.54159H17.0834V5.12492C17.0834 4.18534 17.4179 3.381 18.087 2.7119C18.7561 2.0428 19.5605 1.70825 20.5 1.70825H27.3334C28.273 1.70825 29.0773 2.0428 29.7464 2.7119C30.4155 3.381 30.75 4.18534 30.75 5.12492V8.54159H39.2917V27.3333C39.2917 28.2728 38.9572 29.0772 38.2881 29.7463C37.619 30.4154 36.8146 30.7499 35.875 30.7499H11.9584ZM11.9584 27.3333H35.875V11.9583H11.9584V27.3333ZM20.5 8.54159H27.3334V5.12492H20.5V8.54159Z" fill="#00199D"/>
</svg>
