<svg width="41" height="41" viewBox="0 0 41 41" fill="none" xmlns="http://www.w3.org/2000/svg">
<path d="M18.1083 28.3582L30.152 16.3144L27.7604 13.9228L18.1083 23.5748L13.2395 18.7061L10.8479 21.0978L18.1083 28.3582ZM20.5 37.5832C18.1368 37.5832 15.9159 37.1347 13.8375 36.2379C11.759 35.341 9.951 34.1238 8.4135 32.5863C6.876 31.0488 5.65881 29.2408 4.76194 27.1623C3.86506 25.0839 3.41663 22.863 3.41663 20.4998C3.41663 18.1366 3.86506 15.9158 4.76194 13.8373C5.65881 11.7589 6.876 9.95088 8.4135 8.41338C9.951 6.87588 11.759 5.65869 13.8375 4.76182C15.9159 3.86494 18.1368 3.4165 20.5 3.4165C22.8632 3.4165 25.084 3.86494 27.1625 4.76182C29.2409 5.65869 31.0489 6.87588 32.5864 8.41338C34.1239 9.95088 35.3411 11.7589 36.238 13.8373C37.1349 15.9158 37.5833 18.1366 37.5833 20.4998C37.5833 22.863 37.1349 25.0839 36.238 27.1623C35.3411 29.2408 34.1239 31.0488 32.5864 32.5863C31.0489 34.1238 29.2409 35.341 27.1625 36.2379C25.084 37.1347 22.8632 37.5832 20.5 37.5832ZM20.5 34.1665C24.3152 34.1665 27.5468 32.8425 30.1948 30.1946C32.8427 27.5467 34.1666 24.3151 34.1666 20.4998C34.1666 16.6846 32.8427 13.453 30.1948 10.805C27.5468 8.15713 24.3152 6.83317 20.5 6.83317C16.6847 6.83317 13.4531 8.15713 10.8052 10.805C8.15725 13.453 6.83329 16.6846 6.83329 20.4998C6.83329 24.3151 8.15725 27.5467 10.8052 30.1946C13.4531 32.8425 16.6847 34.1665 20.5 34.1665Z" fill="#00199D"/>
</svg>
