<svg width="41" height="41" viewBox="0 0 41 41" fill="none" xmlns="http://www.w3.org/2000/svg">
<path d="M27.3333 37.5832V33.7394C25.7388 33.2269 24.4007 32.3158 23.3187 31.0061C22.2368 29.6964 21.6104 28.1873 21.4395 26.479H24.8562C25.084 27.7033 25.6605 28.7212 26.5859 29.5326C27.5112 30.3441 28.6145 30.7498 29.8958 30.7498H35.0208C35.7326 30.7498 36.3376 30.999 36.8359 31.4972C37.3342 31.9955 37.5833 32.6005 37.5833 33.3123V37.5832H27.3333ZM32.4583 29.0415C31.5187 29.0415 30.7144 28.707 30.0453 28.0379C29.3762 27.3688 29.0416 26.5644 29.0416 25.6248C29.0416 24.6853 29.3762 23.8809 30.0453 23.2118C30.7144 22.5427 31.5187 22.2082 32.4583 22.2082C33.3979 22.2082 34.2022 22.5427 34.8713 23.2118C35.5404 23.8809 35.875 24.6853 35.875 25.6248C35.875 26.5644 35.5404 27.3688 34.8713 28.0379C34.2022 28.707 33.3979 29.0415 32.4583 29.0415ZM15.375 23.9165C15.375 19.6457 16.8698 16.0155 19.8593 13.0259C22.8489 10.0363 26.4791 8.5415 30.75 8.5415V11.9582C27.4187 11.9582 24.5928 13.1184 22.2724 15.4389C19.9519 17.7594 18.7916 20.5853 18.7916 23.9165H15.375ZM22.2083 23.9165C22.2083 21.5533 23.0411 19.5389 24.7067 17.8733C26.3724 16.2076 28.3868 15.3748 30.75 15.3748V18.7915C29.3263 18.7915 28.1163 19.2898 27.1198 20.2863C26.1232 21.2828 25.625 22.4929 25.625 23.9165H22.2083ZM3.41663 18.7915V14.5207C3.41663 13.8089 3.66576 13.2038 4.16402 12.7056C4.66229 12.2073 5.26732 11.9582 5.97913 11.9582H11.1041C12.3854 11.9582 13.4887 11.5524 14.414 10.741C15.3394 9.92952 15.9159 8.91164 16.1437 7.68734H19.5604C19.3895 9.39567 18.7632 10.9047 17.6812 12.2144C16.5993 13.5241 15.2611 14.4353 13.6666 14.9478V18.7915H3.41663ZM8.54163 10.2498C7.60204 10.2498 6.7977 9.91529 6.12861 9.24619C5.45951 8.57709 5.12496 7.77275 5.12496 6.83317C5.12496 5.89359 5.45951 5.08925 6.12861 4.42015C6.7977 3.75105 7.60204 3.4165 8.54163 3.4165C9.48121 3.4165 10.2855 3.75105 10.9546 4.42015C11.6237 5.08925 11.9583 5.89359 11.9583 6.83317C11.9583 7.77275 11.6237 8.57709 10.9546 9.24619C10.2855 9.91529 9.48121 10.2498 8.54163 10.2498Z" fill="#00199D"/>
</svg>
