<?xml version="1.0" encoding="UTF-8" standalone="no"?>
<!DOCTYPE svg PUBLIC "-//W3C//DTD SVG 1.1//EN" "http://www.w3.org/Graphics/SVG/1.1/DTD/svg11.dtd">
<svg width="100%" height="100%" viewBox="0 0 232 226" version="1.1" xmlns="http://www.w3.org/2000/svg" xmlns:xlink="http://www.w3.org/1999/xlink" xml:space="preserve" xmlns:serif="http://www.serif.com/" style="fill-rule:evenodd;clip-rule:evenodd;stroke-linejoin:round;stroke-miterlimit:2;">
    <g transform="matrix(1,0,0,1,-2364.53,-1641.28)">
        <g transform="matrix(1,0,0,1,2364.53,1641.28)">
            <path d="M205,225.312L136.562,156.875L162.812,130.625L231.25,199.062L205,225.312ZM32.5,225.312L6.25,199.062L92.5,112.812L71.25,91.563L62.5,100.312L46.563,84.375L46.563,110L37.813,118.75L0,80.938L8.75,72.188L34.375,72.188L18.75,56.563L63.125,12.188C67.292,8.021 71.771,5 76.563,3.125C81.354,1.25 86.25,0.313 91.25,0.313C96.25,0.313 101.146,1.25 105.938,3.125C110.729,5 115.208,8.021 119.375,12.188L90.625,40.938L106.25,56.563L97.5,65.313L118.75,86.563L146.875,58.438C146.042,56.146 145.365,53.75 144.844,51.25C144.323,48.75 144.062,46.25 144.062,43.75C144.062,31.458 148.281,21.094 156.719,12.656C165.156,4.219 175.521,0 187.812,0C190.938,0 193.906,0.313 196.719,0.938C199.531,1.563 202.396,2.5 205.312,3.75L174.375,34.688L196.875,57.188L227.812,26.25C229.271,29.167 230.26,32.031 230.781,34.844C231.302,37.656 231.562,40.625 231.562,43.75C231.562,56.042 227.344,66.406 218.906,74.844C210.469,83.281 200.104,87.5 187.812,87.5C185.312,87.5 182.812,87.292 180.312,86.875C177.812,86.458 175.417,85.729 173.125,84.688L32.5,225.312Z" style="fill:rgb(218,40,27);fill-rule:nonzero;"/>
        </g>
    </g>
</svg>
