<svg width="41" height="41" viewBox="0 0 41 41" fill="none" xmlns="http://www.w3.org/2000/svg">
<path d="M15.0333 18.7061L18.7062 14.9905L16.3145 12.5561L14.4354 14.4353L12.0437 12.0436L13.8802 10.1644L11.9583 8.24255L8.24267 11.9582L15.0333 18.7061ZM29.0416 32.7571L32.7573 29.0415L30.8354 27.1196L28.9562 28.9561L26.5645 26.5644L28.401 24.6853L25.9666 22.2936L22.2937 25.9665L29.0416 32.7571ZM12.3854 35.8748H5.12496V28.6144L12.5989 21.1405L3.41663 11.9582L11.9583 3.4165L21.1833 12.6415L27.6323 6.14984C27.9739 5.80817 28.3583 5.55192 28.7854 5.38109C29.2125 5.21025 29.6538 5.12484 30.1093 5.12484C30.5649 5.12484 31.0062 5.21025 31.4333 5.38109C31.8604 5.55192 32.2448 5.80817 32.5864 6.14984L34.85 8.45609C35.1916 8.79775 35.4479 9.18213 35.6187 9.60921C35.7895 10.0363 35.875 10.4776 35.875 10.9332C35.875 11.3887 35.7895 11.8229 35.6187 12.2358C35.4479 12.6486 35.1916 13.0259 34.85 13.3675L28.401 19.8592L37.5833 29.0415L29.0416 37.5832L19.8593 28.4009L12.3854 35.8748ZM8.54163 32.4582H10.9333L27.675 15.7592L25.2406 13.3248L8.54163 30.0665V32.4582ZM26.4791 14.5634L25.2406 13.3248L27.675 15.7592L26.4791 14.5634Z" fill="#00199D"/>
</svg>
