<svg width="46" height="46" viewBox="0 0 46 46" fill="none" xmlns="http://www.w3.org/2000/svg">
<path d="M7.66668 38.3333C6.61251 38.3333 5.71008 37.958 4.95939 37.2073C4.20869 36.4566 3.83334 35.5542 3.83334 34.5V11.5C3.83334 10.4458 4.20869 9.54341 4.95939 8.79271C5.71008 8.04202 6.61251 7.66667 7.66668 7.66667H38.3333C39.3875 7.66667 40.2899 8.04202 41.0406 8.79271C41.7913 9.54341 42.1667 10.4458 42.1667 11.5V34.5C42.1667 35.5542 41.7913 36.4566 41.0406 37.2073C40.2899 37.958 39.3875 38.3333 38.3333 38.3333H7.66668ZM23 24.9167L7.66668 15.3333V34.5H38.3333V15.3333L23 24.9167ZM23 21.0833L38.3333 11.5H7.66668L23 21.0833ZM7.66668 15.3333V11.5V34.5V15.3333Z" fill="#FEFEFE"/>
</svg>
