<svg width="41" height="41" viewBox="0 0 41 41" fill="none" xmlns="http://www.w3.org/2000/svg">
<path d="M20.5 37.5834C18.1368 37.5834 15.9159 37.135 13.8375 36.2381C11.759 35.3412 9.951 34.124 8.4135 32.5865C6.876 31.049 5.65881 29.2411 4.76194 27.1626C3.86506 25.0841 3.41663 22.8633 3.41663 20.5001C3.41663 18.1369 3.86506 15.9161 4.76194 13.8376C5.65881 11.7591 6.876 9.95112 8.4135 8.41362C9.951 6.87612 11.759 5.65894 13.8375 4.76206C15.9159 3.86519 18.1368 3.41675 20.5 3.41675C22.8632 3.41675 25.084 3.86519 27.1625 4.76206C29.2409 5.65894 31.0489 6.87612 32.5864 8.41362C34.1239 9.95112 35.3411 11.7591 36.238 13.8376C37.1349 15.9161 37.5833 18.1369 37.5833 20.5001C37.5833 22.8633 37.1349 25.0841 36.238 27.1626C35.3411 29.2411 34.1239 31.049 32.5864 32.5865C31.0489 34.124 29.2409 35.3412 27.1625 36.2381C25.084 37.135 22.8632 37.5834 20.5 37.5834ZM20.5 34.1667C24.3152 34.1667 27.5468 32.8428 30.1948 30.1949C32.8427 27.547 34.1666 24.3154 34.1666 20.5001C34.1666 20.3008 34.1595 20.0944 34.1453 19.8808C34.131 19.6673 34.1239 19.4893 34.1239 19.347C33.9816 20.1727 33.5972 20.856 32.9708 21.397C32.3444 21.9379 31.6041 22.2084 30.75 22.2084H27.3333C26.3937 22.2084 25.5894 21.8739 24.9203 21.2048C24.2512 20.5357 23.9166 19.7313 23.9166 18.7917V17.0834H17.0833V13.6667C17.0833 12.7272 17.4178 11.9228 18.0869 11.2537C18.756 10.5846 19.5604 10.2501 20.5 10.2501H22.2083C22.2083 9.59522 22.3862 9.01866 22.7421 8.52039C23.098 8.02213 23.5323 7.6164 24.0448 7.30321C23.4753 7.16085 22.8987 7.04696 22.3151 6.96154C21.7314 6.87612 21.1263 6.83341 20.5 6.83341C16.6847 6.83341 13.4531 8.15737 10.8052 10.8053C8.15725 13.4532 6.83329 16.6848 6.83329 20.5001H15.375C17.2541 20.5001 18.8628 21.1692 20.201 22.5074C21.5392 23.8456 22.2083 25.4542 22.2083 27.3334V29.0417H17.0833V33.7397C17.6527 33.882 18.2151 33.9888 18.7703 34.06C19.3255 34.1312 19.902 34.1667 20.5 34.1667Z" fill="#00199D"/>
</svg>
