<svg width="41" height="41" viewBox="0 0 41 41" fill="none" xmlns="http://www.w3.org/2000/svg">
<path d="M0 30.75V28.0594C0 26.8351 0.626389 25.8385 1.87917 25.0698C3.13194 24.301 4.78333 23.9167 6.83333 23.9167C7.20347 23.9167 7.55938 23.9238 7.90104 23.938C8.24271 23.9523 8.57014 23.9878 8.88333 24.0448C8.48472 24.6427 8.18576 25.2691 7.98646 25.924C7.78715 26.5788 7.6875 27.2622 7.6875 27.974V30.75H0ZM10.25 30.75V27.974C10.25 27.0628 10.4991 26.23 10.9974 25.4755C11.4957 24.721 12.2003 24.059 13.1115 23.4896C14.0226 22.9201 15.1116 22.4931 16.3786 22.2083C17.6457 21.9236 19.0194 21.7813 20.5 21.7813C22.009 21.7813 23.397 21.9236 24.6641 22.2083C25.9311 22.4931 27.0201 22.9201 27.9313 23.4896C28.8424 24.059 29.5399 24.721 30.024 25.4755C30.508 26.23 30.75 27.0628 30.75 27.974V30.75H10.25ZM33.3125 30.75V27.974C33.3125 27.2337 33.22 26.5361 33.0349 25.8813C32.8498 25.2264 32.5722 24.6142 32.2021 24.0448C32.5153 23.9878 32.8356 23.9523 33.163 23.938C33.4905 23.9238 33.825 23.9167 34.1667 23.9167C36.2167 23.9167 37.8681 24.2939 39.1208 25.0484C40.3736 25.803 41 26.8066 41 28.0594V30.75H33.3125ZM13.8802 27.3333H27.1625C26.8778 26.7639 26.0877 26.2656 24.7922 25.8385C23.4967 25.4115 22.066 25.1979 20.5 25.1979C18.934 25.1979 17.5033 25.4115 16.2078 25.8385C14.9123 26.2656 14.1365 26.7639 13.8802 27.3333ZM6.83333 22.2083C5.89375 22.2083 5.08941 21.8738 4.42031 21.2047C3.75122 20.5356 3.41667 19.7313 3.41667 18.7917C3.41667 17.8236 3.75122 17.0122 4.42031 16.3573C5.08941 15.7024 5.89375 15.375 6.83333 15.375C7.80139 15.375 8.61285 15.7024 9.26771 16.3573C9.92257 17.0122 10.25 17.8236 10.25 18.7917C10.25 19.7313 9.92257 20.5356 9.26771 21.2047C8.61285 21.8738 7.80139 22.2083 6.83333 22.2083ZM34.1667 22.2083C33.2271 22.2083 32.4227 21.8738 31.7536 21.2047C31.0845 20.5356 30.75 19.7313 30.75 18.7917C30.75 17.8236 31.0845 17.0122 31.7536 16.3573C32.4227 15.7024 33.2271 15.375 34.1667 15.375C35.1347 15.375 35.9462 15.7024 36.601 16.3573C37.2559 17.0122 37.5833 17.8236 37.5833 18.7917C37.5833 19.7313 37.2559 20.5356 36.601 21.2047C35.9462 21.8738 35.1347 22.2083 34.1667 22.2083ZM20.5 20.5C19.0764 20.5 17.8663 20.0017 16.8698 19.0052C15.8733 18.0087 15.375 16.7986 15.375 15.375C15.375 13.9229 15.8733 12.7057 16.8698 11.7234C17.8663 10.7411 19.0764 10.25 20.5 10.25C21.9521 10.25 23.1693 10.7411 24.1516 11.7234C25.1339 12.7057 25.625 13.9229 25.625 15.375C25.625 16.7986 25.1339 18.0087 24.1516 19.0052C23.1693 20.0017 21.9521 20.5 20.5 20.5ZM20.5 17.0833C20.984 17.0833 21.3898 16.9196 21.7172 16.5922C22.0446 16.2648 22.2083 15.859 22.2083 15.375C22.2083 14.891 22.0446 14.4852 21.7172 14.1578C21.3898 13.8304 20.984 13.6667 20.5 13.6667C20.016 13.6667 19.6102 13.8304 19.2828 14.1578C18.9554 14.4852 18.7917 14.891 18.7917 15.375C18.7917 15.859 18.9554 16.2648 19.2828 16.5922C19.6102 16.9196 20.016 17.0833 20.5 17.0833Z" fill="#00199D"/>
</svg>
