<svg width="41" height="41" viewBox="0 0 41 41" fill="none" xmlns="http://www.w3.org/2000/svg">
<path d="M20.5 20.4998C21.4396 20.4998 22.244 20.1653 22.9131 19.4962C23.5822 18.8271 23.9167 18.0228 23.9167 17.0832C23.9167 16.1436 23.5822 15.3392 22.9131 14.6701C22.244 14.0011 21.4396 13.6665 20.5 13.6665C19.5605 13.6665 18.7561 14.0011 18.087 14.6701C17.4179 15.3392 17.0834 16.1436 17.0834 17.0832C17.0834 18.0228 17.4179 18.8271 18.087 19.4962C18.7561 20.1653 19.5605 20.4998 20.5 20.4998ZM20.5 33.0561C23.9737 29.8672 26.5504 26.9701 28.2302 24.3649C29.9101 21.7597 30.75 19.4464 30.75 17.4248C30.75 14.3214 29.7606 11.7802 27.7818 9.8014C25.803 7.82258 23.3757 6.83317 20.5 6.83317C17.6243 6.83317 15.1971 7.82258 13.2183 9.8014C11.2395 11.7802 10.25 14.3214 10.25 17.4248C10.25 19.4464 11.09 21.7597 12.7698 24.3649C14.4497 26.9701 17.0264 29.8672 20.5 33.0561ZM20.5 37.5832C15.916 33.6825 12.4922 30.0594 10.2287 26.7139C7.96514 23.3684 6.83337 20.2721 6.83337 17.4248C6.83337 13.154 8.20716 9.75157 10.9547 7.21755C13.7023 4.68352 16.8841 3.4165 20.5 3.4165C24.116 3.4165 27.2978 4.68352 30.0454 7.21755C32.7929 9.75157 34.1667 13.154 34.1667 17.4248C34.1667 20.2721 33.0349 23.3684 30.7714 26.7139C28.5079 30.0594 25.0841 33.6825 20.5 37.5832Z" fill="#00199D"/>
</svg>
