<svg width="41" height="41" viewBox="0 0 41 41" fill="none" xmlns="http://www.w3.org/2000/svg">
<path d="M8.54167 35.875C7.60208 35.875 6.79774 35.5405 6.12865 34.8714C5.45955 34.2023 5.125 33.3979 5.125 32.4583V8.54167C5.125 7.60208 5.45955 6.79774 6.12865 6.12865C6.79774 5.45955 7.60208 5.125 8.54167 5.125H20.5V8.54167H8.54167V32.4583H32.4583V20.5H35.875V32.4583C35.875 33.3979 35.5405 34.2023 34.8714 34.8714C34.2023 35.5405 33.3979 35.875 32.4583 35.875H8.54167ZM16.5708 26.8208L14.1792 24.4292L30.0667 8.54167H23.9167V5.125H35.875V17.0833H32.4583V10.9333L16.5708 26.8208Z" fill="#00199D"/>
</svg>
