<svg width="41" height="41" viewBox="0 0 41 41" fill="none" xmlns="http://www.w3.org/2000/svg">
<path d="M20.5 20.5002C18.6209 20.5002 17.0122 19.8311 15.674 18.4929C14.3358 17.1547 13.6667 15.546 13.6667 13.6668C13.6667 11.7877 14.3358 10.179 15.674 8.84079C17.0122 7.50259 18.6209 6.8335 20.5 6.8335C22.3792 6.8335 23.9879 7.50259 25.3261 8.84079C26.6643 10.179 27.3334 11.7877 27.3334 13.6668C27.3334 15.546 26.6643 17.1547 25.3261 18.4929C23.9879 19.8311 22.3792 20.5002 20.5 20.5002ZM6.83337 34.1668V29.3835C6.83337 28.4154 7.08251 27.5257 7.58077 26.7142C8.07903 25.9028 8.74101 25.2835 9.56671 24.8564C11.332 23.9738 13.1257 23.3118 14.948 22.8705C16.7702 22.4292 18.6209 22.2085 20.5 22.2085C22.3792 22.2085 24.2299 22.4292 26.0521 22.8705C27.8743 23.3118 29.6681 23.9738 31.4334 24.8564C32.2591 25.2835 32.921 25.9028 33.4193 26.7142C33.9176 27.5257 34.1667 28.4154 34.1667 29.3835V34.1668H6.83337ZM10.25 30.7502H30.75V29.3835C30.75 29.0703 30.6717 28.7856 30.5151 28.5293C30.3585 28.2731 30.1521 28.0738 29.8959 27.9314C28.3584 27.1627 26.8066 26.5861 25.2407 26.2017C23.6747 25.8174 22.0945 25.6252 20.5 25.6252C18.9056 25.6252 17.3254 25.8174 15.7594 26.2017C14.1934 26.5861 12.6417 27.1627 11.1042 27.9314C10.848 28.0738 10.6415 28.2731 10.4849 28.5293C10.3283 28.7856 10.25 29.0703 10.25 29.3835V30.7502ZM20.5 17.0835C21.4396 17.0835 22.244 16.7489 22.9131 16.0799C23.5822 15.4108 23.9167 14.6064 23.9167 13.6668C23.9167 12.7272 23.5822 11.9229 22.9131 11.2538C22.244 10.5847 21.4396 10.2502 20.5 10.2502C19.5605 10.2502 18.7561 10.5847 18.087 11.2538C17.4179 11.9229 17.0834 12.7272 17.0834 13.6668C17.0834 14.6064 17.4179 15.4108 18.087 16.0799C18.7561 16.7489 19.5605 17.0835 20.5 17.0835Z" fill="#00199D"/>
</svg>
