<svg width="41" height="41" viewBox="0 0 41 41" fill="none" xmlns="http://www.w3.org/2000/svg">
<path d="M16.9552 36.0885L12.7271 28.2301L4.86877 24.002L7.90107 21.0124L14.0938 22.0801L18.45 17.7239L4.91148 11.9583L8.49898 8.28534L24.9417 11.1895L30.2375 5.89367C30.8924 5.23881 31.7038 4.91138 32.6719 4.91138C33.64 4.91138 34.4514 5.23881 35.1063 5.89367C35.7611 6.54853 36.0886 7.35287 36.0886 8.30669C36.0886 9.26051 35.7611 10.0648 35.1063 10.7197L29.7677 16.0583L32.6719 32.4583L29.0417 36.0885L23.2334 22.5499L18.8771 26.9062L19.9875 33.0562L16.9552 36.0885Z" fill="#00199D"/>
</svg>
